# xmcd CD database file
#
# Track frame offsets:
#	150
#	18445
#	47577
#
# Disc length: 830 seconds
#
# Revision: 2
# Processed by: cddbd v1.5PL3 Copyright (c) Steve Scherf et al.
# Submitted via: CDex 1.51
#
DISCID=1a033c03
DTITLE=Chet Atkins And Mark Knopfler - Poor Boy Blues (Single)
DYEAR=1990
DGENRE=Country
TTITLE0=Poor Boy Blues
TTITLE1=There'll Be Some Changes Made
TTITLE2=So Soft, Your Goodbye
EXTD=3-track 5" single in card sleeve from UK\n1990 CBS Records Inc.\n656373-2\n YEAR: 1990
EXTT0=
EXTT1=
EXTT2=
PLAYORDER=
